<svg id="Icon_awesome-at" data-name="Icon awesome-at" xmlns="http://www.w3.org/2000/svg" width="24" height="24" viewBox="0 0 24 24">
  <defs>
    <style>
      .cls-1 {
        fill: #335145;
      }
    </style>
  </defs>
  <path id="Icon_awesome-at-2" data-name="Icon awesome-at" class="cls-1" d="M12.563.562a12,12,0,1,0,6.552,22.054,1.163,1.163,0,0,0,.269-1.712l-.492-.6a1.158,1.158,0,0,0-1.518-.248,8.9,8.9,0,1,1-4.81-16.4c4.845,0,8.9,2.788,8.9,7.742,0,1.877-1.021,3.858-2.815,4.05-.839-.022-.818-.622-.652-1.453l1.134-5.86a1.161,1.161,0,0,0-1.14-1.382H15.816a.654.654,0,0,0-.65.58v0a3.721,3.721,0,0,0-2.9-1.054c-3.609,0-6.669,3.011-6.669,7.329,0,3.16,1.78,5.123,4.645,5.123a4.9,4.9,0,0,0,3.629-1.855c.461,1.65,1.965,1.65,3.421,1.65,5.27,0,7.273-3.465,7.273-7.133C24.563,4.8,19.241.562,12.563.562Zm-1.049,14.73A1.734,1.734,0,0,1,9.768,13.32c0-2.177,1.489-3.519,2.837-3.519,1.079,0,1.723.737,1.723,1.973A3.339,3.339,0,0,1,11.513,15.293Z" transform="translate(-0.563 -0.563)"/>
</svg>
