<svg xmlns="http://www.w3.org/2000/svg" width="72" height="58" viewBox="0 0 72 58">
  <defs>
    <style>
      .cls-1 {
        fill: none;
        stroke: #335145;
        stroke-width: 2px;
      }
    </style>
  </defs>
  <g id="Icon_awesome-truck" data-name="Icon awesome-truck" transform="translate(1 1)">
    <path id="Icon_awesome-truck-2" data-name="Icon awesome-truck" class="cls-1" d="M68.25,38.5H66.5V26.677a5.25,5.25,0,0,0-1.542-3.708L54.031,12.042A5.25,5.25,0,0,0,50.323,10.5H45.5V5.25A5.251,5.251,0,0,0,40.25,0h-35A5.251,5.251,0,0,0,0,5.25v35A5.251,5.251,0,0,0,5.25,45.5H7a10.5,10.5,0,0,0,21,0H42a10.5,10.5,0,1,0,21,0h5.25A1.755,1.755,0,0,0,70,43.75v-3.5A1.755,1.755,0,0,0,68.25,38.5ZM17.5,50.75a5.25,5.25,0,1,1,5.25-5.25A5.251,5.251,0,0,1,17.5,50.75Zm35,0a5.25,5.25,0,1,1,5.25-5.25A5.251,5.251,0,0,1,52.5,50.75ZM61.25,28H45.5V15.75h4.823L61.25,26.677Z"/>
  </g>
</svg>
