<svg xmlns="http://www.w3.org/2000/svg" width="727.336" height="290.287" viewBox="0 0 727.336 290.287">
  <defs>
    <style>
      .cls-1 {
        fill: #f2f2f2;
      }

      .cls-2 {
        fill: #e8f5e9;
      }

      .cls-3 {
        fill: #335145;
      }

      .cls-4 {
        fill: none;
        stroke: #3f3d56;
        stroke-miterlimit: 10;
      }

      .cls-5 {
        fill: #bff0cf;
      }

      .cls-6 {
        fill: #2f2e41;
      }

      .cls-7 {
        fill: #fff;
      }

      .cls-8 {
        fill: #6c63ff;
        opacity: 0.3;
      }
    </style>
  </defs>
  <g id="Grupo_6" data-name="Grupo 6" transform="translate(0.13 -155.482)">
    <ellipse id="Elipse_1" data-name="Elipse 1" class="cls-1" cx="356.948" cy="23.631" rx="356.948" ry="23.631" transform="translate(8.894 398.508)"/>
    <path id="Trazado_2" data-name="Trazado 2" class="cls-2" d="M535.741,324.894c-58.157,0-99.912,37.312-99.912,124.372,0,98.669,41.756,124.787,99.912,124.787s102.4-28.606,102.4-124.787C638.141,346.452,593.9,324.894,535.741,324.894Zm.382,216.408c-40.281,0-61.325-23.632-61.325-91.972,0-60.3,21.905-92.1,62.186-92.1s62.186,20.888,62.186,92.1C599.171,515.947,576.4,541.3,536.123,541.3Z" transform="translate(-183.58 -161.45)"/>
    <path id="Trazado_3" data-name="Trazado 3" class="cls-3" d="M298.2,509.912H274.153V439.1a14.18,14.18,0,0,0-14.18-14.18h-5.634a14.18,14.18,0,0,0-14.18,14.18v70.807H172.334a8.1,8.1,0,0,1-7.158-11.877L236.96,362.171a14.18,14.18,0,0,0-6.483-19.447l-4.238-2a14.18,14.18,0,0,0-18.561,6.138l-87.55,163.778a19.228,19.228,0,0,0-2.271,9.065h0a19.228,19.228,0,0,0,19.228,19.228H240.158v44.774a17,17,0,0,0,17,17h0a17,17,0,0,0,17-17V538.932H298.2a14.51,14.51,0,0,0,14.51-14.51h0a14.51,14.51,0,0,0-14.51-14.51Z" transform="translate(-80.773 -166.128)"/>
    <path id="Trazado_4" data-name="Trazado 4" class="cls-3" d="M956.194,509.912H932.149V439.1a14.18,14.18,0,0,0-14.18-14.18h-5.634a14.18,14.18,0,0,0-14.18,14.18v70.807H830.331a8.1,8.1,0,0,1-7.158-11.877l71.784-135.864a14.18,14.18,0,0,0-6.483-19.447l-4.238-2a14.18,14.18,0,0,0-18.561,6.138l-87.55,163.778a19.229,19.229,0,0,0-2.271,9.065h0a19.228,19.228,0,0,0,19.228,19.228H898.154v44.774a17,17,0,0,0,17,17h0a17,17,0,0,0,17-17V538.932h24.045a14.51,14.51,0,0,0,14.51-14.51h0a14.51,14.51,0,0,0-14.51-14.51Z" transform="translate(-293.517 -166.128)"/>
    <path id="Trazado_5" data-name="Trazado 5" class="cls-4" d="M308,497.659H283.955V426.851a14.18,14.18,0,0,0-14.18-14.18h-5.634a14.18,14.18,0,0,0-14.18,14.18v70.807H182.137a8.1,8.1,0,0,1-7.158-11.877l71.784-135.864a14.18,14.18,0,0,0-6.483-19.447l-4.238-2a14.18,14.18,0,0,0-18.561,6.137l-87.55,163.778a19.228,19.228,0,0,0-2.271,9.065h0a19.228,19.228,0,0,0,19.228,19.228H249.96v44.774a17,17,0,0,0,17,17h0a17,17,0,0,0,17-17V526.679H308a14.51,14.51,0,0,0,14.51-14.51h0A14.51,14.51,0,0,0,308,497.659Z" transform="translate(-83.943 -162.166)"/>
    <path id="Trazado_6" data-name="Trazado 6" class="cls-4" d="M974.574,497.659H950.529V426.851a14.18,14.18,0,0,0-14.181-14.18h-5.634a14.18,14.18,0,0,0-14.18,14.18v70.807H848.71a8.1,8.1,0,0,1-7.158-11.877l71.784-135.864a14.18,14.18,0,0,0-6.483-19.447l-4.238-2a14.18,14.18,0,0,0-18.561,6.137l-87.55,163.778a19.228,19.228,0,0,0-2.271,9.065h0a19.228,19.228,0,0,0,19.228,19.228H916.534v44.774a17,17,0,0,0,17,17h0a17,17,0,0,0,17-17V526.679h24.045a14.51,14.51,0,0,0,14.51-14.51h0A14.51,14.51,0,0,0,974.574,497.659Z" transform="translate(-299.46 -162.166)"/>
    <path id="Trazado_7" data-name="Trazado 7" class="cls-4" d="M555.346,313.866c-58.157,0-99.912,37.312-99.912,124.372,0,98.669,41.756,124.787,99.912,124.787s102.4-28.606,102.4-124.787C657.746,335.424,613.5,313.866,555.346,313.866Zm.382,216.408c-40.281,0-61.325-23.632-61.325-91.972,0-60.3,21.905-92.1,62.186-92.1s62.186,20.888,62.186,92.1c0,66.617-22.767,91.972-63.048,91.972Z" transform="translate(-189.919 -157.884)"/>
    <path id="Trazado_23" data-name="Trazado 23" class="cls-5" d="M1065.485,564.38a14.083,14.083,0,1,0,1.875-27.01l.352,7.249-3.429-6.212a14.031,14.031,0,0,0-7.229,7.932,13.813,13.813,0,0,0-.81,3.81A14.081,14.081,0,0,0,1065.485,564.38Z" transform="translate(-384.162 -230.048)"/>
    <path id="Trazado_24" data-name="Trazado 24" class="cls-4" d="M1093.727,642.67c-1.211-6.165,4.035-11.63,9.217-15.182s11.236-7.043,13-13.071c2.541-8.664-5.028-16.6-10.919-23.441a84.782,84.782,0,0,1-11.181-16.617,22.876,22.876,0,0,1-2.674-7.556c-.464-3.841.769-7.662,2.012-11.325q6.211-18.305,13.282-36.3" transform="translate(-395.435 -224.264)"/>
    <path id="Trazado_25" data-name="Trazado 25" class="cls-4" d="M1066.343,561.622a14.083,14.083,0,1,0,1.875-27.01l.352,7.249-3.429-6.212a14.03,14.03,0,0,0-7.229,7.932,13.812,13.812,0,0,0-.81,3.81A14.081,14.081,0,0,0,1066.343,561.622Z" transform="translate(-384.439 -229.156)"/>
    <path id="Trazado_26" data-name="Trazado 26" class="cls-5" d="M1092.047,511.04a14.067,14.067,0,0,1,10.137-8.931l1.16,6.891,2.15-7.238a14.082,14.082,0,1,1-13.446,9.277Z" transform="translate(-395.476 -218.635)"/>
    <path id="Trazado_27" data-name="Trazado 27" class="cls-4" d="M1093.19,507.363a14.067,14.067,0,0,1,10.137-8.931l1.16,6.891,2.15-7.238a14.082,14.082,0,1,1-13.446,9.277Z" transform="translate(-395.845 -217.447)"/>
    <path id="Trazado_28" data-name="Trazado 28" class="cls-5" d="M1103.609,612.433a14.082,14.082,0,0,0,12.464-25.052l-1.652,5.562-1.171-6.972a.244.244,0,0,0-.036-.014,14.082,14.082,0,1,0-9.6,26.477Z" transform="translate(-396.486 -245.583)"/>
    <path id="Trazado_29" data-name="Trazado 29" class="cls-4" d="M1104.6,608.708a14.082,14.082,0,0,0,12.464-25.052l-1.652,5.562-1.171-6.972a.241.241,0,0,0-.036-.014,14.082,14.082,0,0,0-9.6,26.477Z" transform="translate(-396.806 -244.379)"/>
    <path id="Trazado_30" data-name="Trazado 30" class="cls-5" d="M1086.274,652.161a14.076,14.076,0,1,0,2.714-11.028l6.275,9.444-8.573-5.013A13.95,13.95,0,0,0,1086.274,652.161Z" transform="translate(-393.813 -261.923)"/>
    <path id="Trazado_31" data-name="Trazado 31" class="cls-4" d="M1087.132,649.4a14.076,14.076,0,1,0,2.714-11.028l6.275,9.444-8.573-5.013a13.952,13.952,0,0,0-.415,6.6Z" transform="translate(-394.09 -261.032)"/>
    <path id="Trazado_32" data-name="Trazado 32" class="cls-5" d="M69.149,619.557a9.253,9.253,0,1,0,1.232-17.746l.232,4.763-2.253-4.082a9.218,9.218,0,0,0-4.75,5.212,9.074,9.074,0,0,0-.532,2.5,9.251,9.251,0,0,0,6.071,9.35Z" transform="translate(-63.054 -250.917)"/>
    <path id="Trazado_33" data-name="Trazado 33" class="cls-4" d="M87.7,670.994c-.8-4.05,2.651-7.641,6.056-9.975s7.382-4.627,8.544-8.588c1.669-5.693-3.3-10.906-7.174-15.4a55.707,55.707,0,0,1-7.346-10.918,15.029,15.029,0,0,1-1.757-4.964c-.305-2.523.505-5.034,1.322-7.441q4.081-12.027,8.727-23.852" transform="translate(-70.46 -247.117)"/>
    <path id="Trazado_34" data-name="Trazado 34" class="cls-4" d="M69.712,617.745A9.253,9.253,0,1,0,70.945,600l.232,4.763-2.253-4.082a9.218,9.218,0,0,0-4.75,5.212,9.074,9.074,0,0,0-.532,2.5A9.251,9.251,0,0,0,69.712,617.745Z" transform="translate(-63.236 -250.331)"/>
    <path id="Trazado_35" data-name="Trazado 35" class="cls-5" d="M86.6,584.511a9.242,9.242,0,0,1,6.66-5.867l.762,4.528,1.412-4.755a9.252,9.252,0,1,1-8.834,6.1Z" transform="translate(-70.488 -243.419)"/>
    <path id="Trazado_36" data-name="Trazado 36" class="cls-4" d="M87.352,582.1a9.242,9.242,0,0,1,6.66-5.868l.762,4.528L96.186,576a9.252,9.252,0,1,1-8.834,6.1Z" transform="translate(-70.73 -242.638)"/>
    <path id="Trazado_37" data-name="Trazado 37" class="cls-5" d="M94.2,651.128a9.252,9.252,0,0,0,8.189-16.46l-1.085,3.654-.77-4.581-.024-.009a9.252,9.252,0,0,0-6.31,17.4Z" transform="translate(-71.151 -261.124)"/>
    <path id="Trazado_38" data-name="Trazado 38" class="cls-4" d="M94.848,648.681a9.252,9.252,0,0,0,8.189-16.46l-1.085,3.654-.77-4.581-.024-.009a9.252,9.252,0,0,0-6.31,17.4Z" transform="translate(-71.361 -260.333)"/>
    <path id="Trazado_39" data-name="Trazado 39" class="cls-5" d="M82.808,677.23a9.248,9.248,0,1,0,1.783-7.246l4.123,6.2L83.081,672.9a9.166,9.166,0,0,0-.273,4.334Z" transform="translate(-69.395 -271.86)"/>
    <path id="Trazado_40" data-name="Trazado 40" class="cls-4" d="M83.371,675.418a9.248,9.248,0,1,0,1.783-7.246l4.123,6.2-5.633-3.293a9.166,9.166,0,0,0-.273,4.334Z" transform="translate(-69.577 -271.274)"/>
    <ellipse id="Elipse_6" data-name="Elipse 6" class="cls-6" cx="11.504" cy="14.887" rx="11.504" ry="14.887" transform="translate(313.943 251.484)"/>
    <ellipse id="Elipse_7" data-name="Elipse 7" class="cls-6" cx="11.504" cy="14.887" rx="11.504" ry="14.887" transform="translate(376.535 251.822)"/>
    <path id="Trazado_41" data-name="Trazado 41" class="cls-6" d="M603.454,536.68c0,6.726-9.392,12.18-20.977,12.18S561.5,543.406,561.5,536.68c0-5.826,7.044-10.7,16.457-11.889a33.891,33.891,0,0,1,4.52-.291,34.307,34.307,0,0,1,7.531.812C597.871,527.065,603.454,531.5,603.454,536.68Z" transform="translate(-224.212 -225.987)"/>
    <ellipse id="Elipse_8" data-name="Elipse 8" class="cls-4" cx="11.504" cy="14.887" rx="11.504" ry="14.887" transform="translate(316.649 248.101)"/>
    <ellipse id="Elipse_9" data-name="Elipse 9" class="cls-4" cx="11.504" cy="14.887" rx="11.504" ry="14.887" transform="translate(379.242 248.439)"/>
    <ellipse id="Elipse_10" data-name="Elipse 10" class="cls-4" cx="20.977" cy="12.18" rx="20.977" ry="12.18" transform="translate(339.995 295.13)"/>
    <path id="Trazado_42" data-name="Trazado 42" class="cls-7" d="M597.856,526.165a3.341,3.341,0,0,1-.893,2.3,2.936,2.936,0,0,1-2.152.953h-6.767A3.156,3.156,0,0,1,585,526.165a3.319,3.319,0,0,1,.555-1.855,31.816,31.816,0,0,1,4.52-.31,32.251,32.251,0,0,1,7.531.866,3.428,3.428,0,0,1,.25,1.3Z" transform="translate(-231.809 -225.825)"/>
    <circle id="Elipse_11" data-name="Elipse 11" class="cls-7" cx="3.383" cy="3.383" r="3.383" transform="translate(324.769 255.544)"/>
    <circle id="Elipse_12" data-name="Elipse 12" class="cls-7" cx="3.383" cy="3.383" r="3.383" transform="translate(387.701 255.544)"/>
    <circle id="Elipse_13" data-name="Elipse 13" class="cls-8" cx="3.383" cy="3.383" r="3.383" transform="translate(391.084 287.348)"/>
    <circle id="Elipse_14" data-name="Elipse 14" class="cls-8" cx="3.383" cy="3.383" r="3.383" transform="translate(308.529 287.348)"/>
  </g>
</svg>
