<svg id="Logo" xmlns="http://www.w3.org/2000/svg" width="260" height="106.225" viewBox="0 0 260 106.225">
  <path id="Unión_1" data-name="Unión 1" d="M-3871.1-2039.77a4.908,4.908,0,0,1-3.387-1.35,6.428,6.428,0,0,1-4.436-6.111v-2.177a6.425,6.425,0,0,1,6.425-6.425h15.6a5.334,5.334,0,0,1-2.568-4.161,5.747,5.747,0,0,1,1.322-4.13h-25.953a6.425,6.425,0,0,1-6.425-6.425v-2.7a6.412,6.412,0,0,1,2.235-4.87h-24a7.71,7.71,0,0,1-7.71-7.71v-4.271a7.71,7.71,0,0,1,7.71-7.71h34.518a5.425,5.425,0,0,1-1.634-3.886,5.441,5.441,0,0,1,3.122-4.923h-33.063a3.886,3.886,0,0,1-3.886-3.886,3.886,3.886,0,0,1,3.886-3.886h23.864a11.344,11.344,0,0,1-7.453-10.88v-1.037c0-6.3,4.76-11.4,10.632-11.4h24.163v-.191a4.147,4.147,0,0,1-2.9-3.955A4.146,4.146,0,0,1-3856.9-2146H-3707.5a6.425,6.425,0,0,1,6.425,6.425v2.177a6.426,6.426,0,0,1-6.425,6.425h-23.163a4.663,4.663,0,0,1,2.525,4.145,4.663,4.663,0,0,1-2.526,4.146h35.729a6.425,6.425,0,0,1,6.425,6.425v2.177a6.411,6.411,0,0,1-2.235,4.871h23.037a7.71,7.71,0,0,1,7.71,7.71v2.716a7.71,7.71,0,0,1-7.71,7.71h-35.181a6.211,6.211,0,0,1,2.78,5.183,6.219,6.219,0,0,1-3.731,5.7h33.674a3.886,3.886,0,0,1,3.886,3.886,3.887,3.887,0,0,1-3.886,3.886h-25.325a11.923,11.923,0,0,1,8.431,11.4,11.919,11.919,0,0,1-11.918,11.918h-22.7a4.922,4.922,0,0,1,2.722,4.4,4.922,4.922,0,0,1-4.923,4.92Z" transform="translate(3920 2145.996)" fill="#bff0cf"/>
  <g id="Componente_77_9" data-name="Componente 77 – 9" transform="translate(61.22 14.563)">
    <text id="bimba" transform="translate(0 44)" fill="#212121" font-size="63" font-family="SignPainter-HouseScript, SignPainter" letter-spacing="0.05em"><tspan x="0" y="0">Bimba</tspan></text>
    <text id="Biocosmética" transform="translate(1.973 65.262)" fill="#212121" font-size="20" font-family="Roboto-Regular, Roboto" letter-spacing="0.05em"><tspan x="0" y="0">Biocosmética</tspan></text>
  </g>
</svg>
